<svg width="26.1075em" height="7.1715em" viewBox="0 -3015.9 22481.2 6175.3" xmlns="http://www.w3.org/2000/svg" xmlns:xlink="http://www.w3.org/1999/xlink" overflow="hidden"><defs><path d="M295 316C295 342.667 286 365.667 268 385 250 404.333 224 414 190 414 166 414 145.333 409.667 128 401 108 388.333 98 371 98 349 97.3333 345.667 97.3333 341.333 98 336 98.6667 330.667 104 322.667 114 312 124 301.333 138.333 293 157 287 169 283.667 183.667 280.667 201 278 218.333 275.333 233 272.333 245 269 257 265.667 267.667 261.333 277 256 288.333 250.667 299.333 244 310 236 320.667 228 331.333 214.333 342 195 352.667 175.667 358.333 155 359 133 359 91.6667 346.333 57.6667 321 31 295.667 4.33333 254.667-9.33333 198-10L190-10C155.333-10 123.333 2 94 26L86 19 77 10C73 6 69 2.33333 65-1L54-11 46-11 42-11C40-11 37-9 33-5L33 74 33 132C33 146 33.6667 154.333 35 157 36.3333 159.667 39.6667 161.333 45 162L54 162C62 162 67.3333 160.667 70 158 72.6667 155.333 74.3333 151.333 75 146 75.6667 140.667 78 131.667 82 119 86 106.333 92.3333 92.3333 101 77 124.333 43 156.667 26 198 26 262.667 26 295 52 295 104 295 123.333 289 139 277 151 263.667 167 236 179 194 187 152 195 124.333 202.667 111 210 87 221.333 68 236.667 54 256 40 275.333 33 296 33 318 33 344 38.6667 366 50 384 61.3333 402 75.6667 415.333 93 424 110.333 432.667 127 438.667 143 442 159 445.333 173.667 447 187 447L198 447C224.667 447 248 442 268 432L283 424 292 431C298.667 437 306 442.667 314 448L322 448 326 448C328 448 331 446 335 442L335 310 329 304 301 304C297 308 295 312 295 316Z" id="E1-MJMAIN-73"/><path d="M69 609C69 627.667 75 642.333 87 653 99 663.667 113.667 669 131 669 146.333 667.667 159.667 662 171 652 182.333 642 188 627.667 188 609 188 589 182.333 574 171 564 159.667 554 145.667 549 129 549 112.333 549 98.3333 554 87 564 75.6667 574 69.6667 589 69 609ZM247 0C237 2 202.333 3 143 3 135.667 3 123.333 3 106 3 88.6667 3 72 2.33333 56 1L34 0 26 0 26 46 42 46C60.6667 46 77 47 91 49 97 51.6667 100.667 55.3333 102 60 103.333 64.6667 104 78.6667 104 102L104 205 104 293C104 327.667 103.333 349.667 102 359 100.667 368.333 96 374.667 88 378 78.6667 382.667 63 385 41 385L30 385 30 408C30 423.333 30.6667 431 32 431L42 432C48.6667 432.667 58 433.333 70 434 82 434.667 94 435.333 106 436 117.333 436.667 129.333 437.333 142 438 154.667 438.667 164.333 439.667 171 441 177.667 442.333 181.333 442.667 182 442L185 442 185 62C188.333 55.3333 192.333 51.3333 197 50 201.667 48.6667 213.333 47.3333 232 46L255 46 255 0 247 0Z" id="E1-MJMAIN-69"/><path d="M41 46 55 46C81 46 96.6667 50.6667 102 60L102 68C102 74 102 81.6667 102 91 102 100.333 102 110.667 102 122 102 133.333 102.333 146.333 103 161 103.667 175.667 103.667 189.667 103 203 103 223.667 103 245.667 103 269 103 292.333 102.667 312 102 328L102 351C100 363.667 95.3333 372 88 376 80.6667 380 65.6667 383 43 385L25 385 25 408C25 423.333 25.6667 431 27 431L37 432C43.6667 432.667 53 433.333 65 434 77 434.667 89.3333 435.333 102 436 113.333 436.667 125.333 437.333 138 438 150.667 438.667 160.333 439.667 167 441 173.667 442.333 177.333 442.667 178 442L181 442 181 402C181 376.667 181.333 364 182 364 182.667 364 184.333 365.667 187 369 189.667 372.333 193.667 377.333 199 384 204.333 390.667 210.667 396.667 218 402 225.333 407.333 235 413.667 247 421 259 428.333 271.667 433.667 285 437 298.333 440.333 315.333 442 336 442 346 442 355.333 441.333 364 440 372.667 438.667 380.333 436.667 387 434 393.667 431.333 400 428.667 406 426 412 423.333 417 420.333 421 417 425 413.667 428.667 410 432 406 435.333 402 438.333 398.333 441 395 443.667 391.667 446 388 448 384 450 380 451.333 376.667 452 374 452.667 371.333 453.667 368.667 455 366L457 361 460 365C462 367.667 464 370.333 466 373 468 375.667 471 379.333 475 384 479 388.667 483.333 393 488 397 492.667 401 497.667 405.333 503 410 508.333 414.667 515 418.667 523 422 531 425.333 538.667 428.667 546 432 553.333 435.333 562 437.667 572 439 582 440.333 592.333 441.333 603 442 687 442 732.667 404.333 740 329 740.667 324.333 741 278 741 190L741 104C741 78.6667 741.667 63.6667 743 59 744.333 54.3333 748 51 754 49 768 47 784.333 46 803 46L819 46 819 0 811 0 788 1C772 1.66667 755 2 737 2 719 2 706.333 2.33333 699 3 630.333 3 593 2 587 0L579 0 579 46 595 46C635.667 46 656 51.3333 656 62 656.667 63.3333 657 109.333 657 200 656.333 290 655.667 337.667 655 343 651 361.667 644.333 375.667 635 385 625.667 394.333 617.667 400 611 402 604.333 404 595.667 404.667 585 404 555 404 528.667 392.667 506 370 488 352 476.667 333.667 472 315 467.333 296.333 464.667 268.667 464 232L464 168 464 108C464 88 464.333 74.6667 465 68 465.667 61.3333 466.667 57 468 55 469.333 53 472.333 51 477 49 491 47 507.333 46 526 46L542 46 542 0 534 0 510 1C494.667 1.66667 478 2 460 2 442 2 429.333 2.33333 422 3 353.333 3 316 2 310 0L302 0 302 46 318 46C358.667 46 379 51.3333 379 62 379.667 63.3333 380 109.333 380 200 379.333 290 378.667 337.667 378 343 374 361.667 367.333 375.667 358 385 348.667 394.333 340.667 400 334 402 327.333 404 318.667 404.667 308 404 278 404 251.667 392.667 229 370 211 352 199.667 333.667 195 315 190.333 296.333 187.667 268.667 187 232L187 168 187 108C187 88 187.333 74.6667 188 68 188.667 61.3333 189.667 57 191 55 192.333 53 195.333 51 200 49 214 47 230.333 46 249 46L265 46 265 0 257 0 234 1C218 1.66667 201 2 183 2 165 2 152.333 2.33333 145 3 76.3333 3 39 2 33 0L25 0 25 46 41 46Z" id="E1-MJMAIN-6D"/><path d="M42 46 56 46C82 46 97.6667 50.6667 103 60L103 68C103 74 103 81.6667 103 91 103 100.333 103 111.333 103 124 103 136.667 103.333 151 104 167 104.667 183 104.667 199.667 104 217 103.333 234.333 103.333 252.667 104 272 104.667 291.333 104.667 310.333 104 329 104 353.667 104 379.667 104 407 104 434.333 104 459.333 104 482 104 504.667 104 524.667 104 542 104 559.333 103.667 574 103 586 102.333 598 102.333 603.667 103 603 101 615.667 96.3333 624 89 628 81.6667 632 66.6667 635 44 637L26 637 26 660C26 675.333 26.6667 683 28 683L38 684C44.6667 684.667 54.3333 685.333 67 686 79.6667 686.667 92 687.333 104 688 115.333 688.667 127.667 689.333 141 690 154.333 690.667 164.333 691.667 171 693 177.667 694.333 181.333 694.667 182 694L185 694 185 379C185 167.667 185.333 61.3333 186 60 188.667 54.6667 192.667 51 198 49 212 47 228.333 46 247 46L263 46 263 0 255 0 232 1C216.667 1.66667 200.333 2 183 2 165.667 2 153 2.33333 145 3 137 3.66667 124.333 3.66667 107 3 89.6667 2.33333 73 1.66667 57 1L34 0 26 0 26 46 42 46Z" id="E1-MJMAIN-6C"/><path d="M137 305C137 305 129.667 305 115 305 100.333 305 88 310 78 320 68 330 63 343 63 359 63 382.333 74.3333 403 97 421 119.667 439 160 448 218 448 266.667 448 306 437.333 336 416 366 394.667 386 369.333 396 340 399.333 330.667 401 320.333 401 309 401 297.667 401.333 259.333 402 194L402 124C402 92 403.667 70 407 58 410.333 46 417.333 40 428 40 438 40 444.667 45.3333 448 56 451.333 66.6667 453 84.3333 453 109L453 145 493 145 493 106C492.333 79.3333 491.333 63.6667 490 59 484 39 472.333 23.3333 455 12 437.667 0.666667 419.333-5.33333 400-6 380.667-6.66667 365-0.666667 353 12 341 24.6667 333 38.6667 329 54L329 58 327 55C325.667 53 324 51 322 49 320 47 317.333 44 314 40 310.667 36 306.667 32.3333 302 29 297.333 25.6667 292.333 21.6667 287 17 281.667 12.3333 275.667 8.66667 269 6 262.333 3.33333 255 0.666667 247-2 239-4.66667 230.333-6.66667 221-8 211.667-9.33333 201.333-10.3333 190-11 150-11 114-0.666667 82 20 50 40.6667 34 69.6667 34 107 34 121 36.3333 134.333 41 147 45.6667 159.667 54.6667 173.333 68 188 81.3333 202.667 97.3333 215 116 225 134.667 235 160.667 244.333 194 253 227.333 261.667 264 266.667 304 268L318 268 318 290C318 312.667 316 329.333 312 340 297.333 387.333 265 411 215 411 203 411 191.667 410.667 181 410 170.333 409.333 162 408 156 406 150 404 147.333 403 148 403 162.667 393 170 378.333 170 359 170 342.333 164.667 329.333 154 320ZM126 106C126 85.3333 134 67 150 51 166 35 185.667 26.6667 209 26 234.333 26 256.667 33.6667 276 49 295.333 64.3333 308.333 84.3333 315 109 316.333 113.667 317.333 135.667 318 175 318 213.667 317.667 233 317 233 311.667 233 304.667 232.667 296 232 287.333 231.333 272.333 228.333 251 223 229.667 217.667 210.333 211 193 203 175.667 195 160.333 182.667 147 166 133.667 149.333 126.667 129.333 126 106Z" id="E1-MJMAIN-61"/><path d="M36 46 50 46C76 46 91.6667 50.6667 97 60L97 68C97 74 97 81.6667 97 91 97 100.333 97.3333 110.667 98 122 98.6667 133.333 98.6667 146.333 98 161 97.3333 175.667 97.3333 189.667 98 203 98 223.667 98 245.667 98 269 98 292.333 98 312 98 328L97 351C95 363.667 90.3333 372 83 376 75.6667 380 60.6667 383 38 385L20 385 20 408C20 423.333 20.6667 431 22 431L32 432C38.6667 432.667 48 433.333 60 434 72 434.667 84 435.333 96 436 106.667 436.667 118.333 437.333 131 438 143.667 438.667 153.333 439.667 160 441 166.667 442.333 170.333 442.667 171 442L174 442 174 373C200 418.333 232.333 441 271 441L277 441C307 441 329 433.667 343 419 357 404.333 364 389 364 373 364 359 359.667 347 351 337 342.333 327 329.667 322 313 322 296.333 322 284 327.333 276 338 268 348.667 263.667 360 263 372 263 378 263.667 383.333 265 388 266.333 392.667 268 396.667 270 400 272 403.333 273 405 273 405 271.667 406.333 264 405 250 401 239.333 395.667 231.333 390.667 226 386 194.667 356 179 296.333 179 207L179 154C179 145.333 179 136.333 179 127 179 117.667 179 109 179 101 179 93 179.333 86.3333 180 81 180.667 75.6667 180.667 70.6667 180 66L180 61C180.667 59.6667 181.667 58.3333 183 57 184.333 55.6667 186 54.6667 188 54 190 53.3333 191.667 52.3333 193 51 194.333 49.6667 196.667 49 200 49 203.333 49 205.667 48.6667 207 48 208.333 47.3333 211.333 47 216 47 220.667 47 223.667 47 225 47 226.333 47 229.667 46.6667 235 46 240.333 45.3333 243.667 45.3333 245 46L276 46 276 0 267 0C255 2 212.667 3 140 3 71.3333 3 34 2 28 0L20 0 20 46 36 46Z" id="E1-MJMAIN-72"/><path d="M27 422C62.3333 424.667 89.6667 443.333 109 478 128.333 512.667 139 553.333 141 600L141 615 181 615 181 431 316 431 316 385 181 385 181 241C181.667 157.667 182 110.667 182 100 182 89.3333 184.333 78.6667 189 68 198.333 42 214.667 29 238 29 267.333 29 285.333 52.6667 292 100 292.667 105.333 293 120.667 293 146L293 181 333 181 333 146 333 134C333 82.6667 319 43.6667 291 17 273-1 249.667-10 221-10 198.333-10 178.667-6 162 2 145.333 10 132.667 20.3333 124 33 115.333 45.6667 109 57.3333 105 68 101 78.6667 98.6667 89.3333 98 100 97.3333 104.667 97 154 97 248L97 385 18 385 18 422 27 422Z" id="E1-MJMAIN-74"/><path d="M69-66C83.6667-66 95.3333-70.6667 104-80 112.667-89.3333 117.333-101.333 118-116 118-128 115-137.667 109-145 103-152.333 97-157.333 91-160 86.3333-162 88.3333-164 97-166 101.667-167.333 106.333-168 111-168 124.333-168 136.667-165 148-159 159.333-153 168.333-146 175-138 181.667-130 189-119.333 197-106 205-92.6667 210.333-82.3333 213-75 215.667-67.6667 219.667-57 225-43L242 0 170 183C156.667 216.333 141.667 254.333 125 297 109 337.667 99.3333 361.333 96 368 92.6667 374.667 87.3333 379 80 381 79.3333 381.667 78.6667 382 78 382 70 384 55.3333 385 34 385L19 385 19 431 26 431 46 430C58.6667 430 72.6667 429.667 88 429 103.333 428.333 114.667 428 122 428 126.667 428 133.333 428 142 428 150.667 428 160.333 428.333 171 429 181.667 429.667 191.333 430 200 430 208.667 430 216.667 430 224 430L233 431 241 431 241 385 232 385C199.333 385 183.667 378.667 185 366L286 112C286 112.667 301.333 151 332 227L376 341 376 350C376 360 372.667 367.667 366 373 359.333 378.333 353.333 381.667 348 383 342.667 384.333 338 385 334 385L331 385 331 431 337 431 344 431C348.667 431 354.333 431 361 431 367.667 431 374.667 430.667 382 430 389.333 429.333 397 429 405 429 413 429 418.667 429 422 429 458.667 429 485.667 429.667 503 431L508 431 508 385 497 385C459.667 381.667 434.667 368.333 422 345 420.667 343.667 406 307 378 235 350 163 320.333 87.6667 289 9 257.667-69.6667 237-116.333 227-131 195.667-179.667 157.667-204 113-204 83.6667-204 60.6667-195 44-177 27.3333-159 19-138.667 19-116 19-98 24.3333-85.3333 35-78 45.6667-70.6667 57-66.6667 69-66Z" id="E1-MJMAIN-79"/><path d="M56 347C56 355.667 60.6667 362.333 70 367L707 367C717 361.667 722 355 722 347 722 339.667 717.333 333.333 708 328L390 327 72 327C61.3333 330.333 56 337 56 347ZM56 153C56 163 61.3333 169.667 72 173L708 173C717.333 166.333 722 159.667 722 153 722 144.333 717 137.667 707 133L70 133C60.6667 137.667 56 144.333 56 153Z" id="E1-MJMAIN-3D"/><path d="M370 305C370 305 363 305 349 305 335 305 323 310 313 320 303 330 297.667 342.667 297 358 297 373.333 302 386 312 396 315.333 399.333 317 401.333 317 402 317 402.667 313.667 403.333 307 404 289.667 406.667 273.333 408 258 408 225.333 408 198.667 397.333 178 376 146.667 344.667 131 292.333 131 219 131 164.333 141.333 121.333 162 90 189.333 49.3333 226 29 272 29 299.333 29 321.333 37.6667 338 55 354.667 72.3333 366.667 93 374 117 375.333 122.333 377 125.667 379 127 381 128.333 386.333 129 395 129L409 129C413 125 415 122 415 120 415 117.333 413.667 112 411 104 408.333 96 403 85 395 71 387 57 377.333 44.3333 366 33 354.667 21.6667 338.667 11.3333 318 2 297.333-7.33333 274.333-11.6667 249-11 191.667-11 141.667 10.3333 99 53 56.3333 95.6667 34.6667 149.333 34 214 34 283.333 55.6667 339.667 99 383 142.333 426.333 192.667 448 250 448 307.333 448 347.333 439 370 421 392.667 403 404 381.667 404 357 404 341.667 398.333 329.333 387 320Z" id="E1-MJMAIN-63"/><path d="M28 214C28 277.333 49.6667 332 93 378 136.333 424 188.667 447.333 250 448 310 448 361.667 425.333 405 380 448.333 334.667 470.333 279.667 471 215 471 151.667 449.667 98.3333 407 55 364.333 11.6667 312-10 250-10 185.333-10 132.333 12.3333 91 57 49.6667 101.667 28.6667 154 28 214ZM250 30C331.333 30 372 84.3333 372 193L372 225 372 250C372 264.667 371.667 277.333 371 288 370.333 298.667 368 311.333 364 326 360 340.667 354.667 352.667 348 362 341.333 371.333 331 380.667 317 390 303 399.333 286.667 406 268 410 264.667 410.667 259.333 411 252 411 232 411 213 407 195 399 166.333 384.333 147.667 364 139 338 130.333 312 126 281.333 126 246L126 226C126 162 132.333 117 145 91 166.333 50.3333 201.333 30 250 30Z" id="E1-MJMAIN-6F"/><path d="M94 250C94 296 97.3333 339.667 104 381 110.667 422.333 118.333 458 127 488 135.667 518 148 547.333 164 576 180 604.667 192.667 627 202 643 211.333 659 225.333 676.333 244 695 262.667 713.667 273.667 725 277 729 280.333 733 288.667 740 302 750L315 750 319 750C328.333 750 333 747 333 741 333 739 327.333 732 316 720 304.667 708 291 690.333 275 667 259 643.667 242.667 615 226 581 209.333 547 195.333 501 184 443 172.667 385 167 320.667 167 250 167 179.333 172.667 115.333 184 58 195.333 0.666667 209-45.6667 225-81 241-116.333 257.333-145 274-167 290.667-189 304.667-206.667 316-220 327.333-233.333 333-240.333 333-241 333-247 328-250 318-250L315-250 302-250 274-226C211.333-169.333 165.667-98.6667 137-14 108.333 70.6667 94 158.667 94 250Z" id="E1-MJMAIN-28"/><path d="M35 200C35 268 48 339.667 74 415 100 490.333 135.333 555.333 180 610 224.667 664.667 271 696 319 704 319.667 704 322.333 704 327 704 331.667 704 335.667 704.333 339 705 375 702.333 403 686 423 656 449 616 462 562.333 462 495 462 418.333 447 340.333 417 261 387 181.667 348.667 116.667 302 66 255.333 15.3333 210.667-10 168-10L161-10C137-10 116.333-3.33333 99 10 81.6667 23.3333 68.6667 41 60 63 51.3333 85 45 107.333 41 130 37 152.667 35 176 35 200ZM383 566C383 634 365.333 668 330 668 306 668 282.667 653 260 623 237.333 593 218.667 559 204 521 189.333 483 178 449.667 170 421 162 392.333 157.667 375.667 157 371 189.667 370.333 222 370 254 370L351 371C351.667 371.667 354.333 382.667 359 404 363.667 425.333 369 452 375 484 381 516 383.667 543.333 383 566ZM113 132C113 61.3333 130.667 26 166 26 176 26 186.667 29.3333 198 36 209.333 42.6667 223 55.3333 239 74 255 92.6667 271 121.667 287 161 303 200.333 319 249 335 307L340 324 145 324C145 322 142 309.333 136 286 130 262.667 124.667 236.667 120 208 115.333 179.333 113 154 113 132Z" id="E1-MJMATHI-3B8"/><path d="M60 749 64 750C67.3333 750 70.6667 750 74 750L86 750 114 726C176.667 669.333 222.333 598.667 251 514 279.667 429.333 294 341.333 294 250 294 204.667 290.667 161 284 119 277.333 77 269.667 41.3333 261 12 252.333-17.3333 240-46.6667 224-76 208-105.333 195.333-127.667 186-143 176.667-158.333 163-175.333 145-194 127-212.667 116.333-223.667 113-227 109.667-230.333 102-236.667 90-246 88-248 86.6667-249.333 86-250L74-250C68.6667-250 65-250 63-250 61-250 59.3333-249 58-247 56.6667-245 55.6667-242 55-238 55.6667-237.333 59.3333-233 66-225 169.333-117.667 221 40.6667 221 250 221 459.333 169.333 617.667 66 725 59.3333 733 55.6667 737.333 55 738 55 743.333 56.6667 747 60 749Z" id="E1-MJMAIN-29"/><path d="M296 0C284 2 240 3 164 3 93.3333 3 55 2 49 0L40 0 40 62 92 62C126.667 62 144 62.6667 144 64 306.667 476 391 684.333 397 689 401 695 413.333 698 434 698 453.333 698 465.667 695 471 689 473.667 687 496 634 538 530 580 426 621.667 322 663 218L724 64C724 62.6667 741.333 62 776 62L828 62 828 0 817 0C803 2 750 3 658 3 558.667 3 501 2 485 0L472 0 472 62 517 62C546.333 62 561 62.3333 561 63L517 175 262 175 240 120C225.333 83.3333 217.667 64.6667 217 64 217 62.6667 231.667 62 261 62L306 62 306 0 296 0ZM390 237 492 238 440 365C406.667 449 389.333 491 388 491 320.667 323 287 238.333 287 237L390 237Z" id="E1-MJMAINB-41"/><path d="M78 250C78 266 83.6667 280 95 292 106.333 304 120.667 310 138 310 154 310 168 304.667 180 294 192 283.333 198.333 269 199 251 199 234.333 193.333 220 182 208 170.667 196 156.333 190 139 190 121.667 190 107.333 195.667 96 207 84.6667 218.333 78.6667 232.667 78 250Z" id="E1-MJMAIN-22C5"/><path d="M720 510C720 487.333 714.667 466.667 704 448 693.333 429.333 680.333 414.667 665 404 649.667 393.333 634.333 384.333 619 377 603.667 369.667 590.667 364.667 580 362L564 359 583 356C595.667 354 612 349.333 632 342 652 334.667 671.333 324.667 690 312 704.667 298.667 716.333 286.667 725 276 743 248.667 752 219.667 752 189L752 183C752 167.667 748.333 148.333 741 125 712.333 53.6667 647.667 12.6667 547 2 544.333 1.33333 458 0.666667 288 0L39 0 39 62 147 62 147 624 39 624 39 686 264 686 409 686C471 686 515.333 684.333 542 681 568.667 677.667 596 669 624 655 688 623 720 574.667 720 510ZM563 513C563 539.667 558 561.333 548 578 538 594.667 528 605.667 518 611 508 616.333 497.333 620 486 622 481.333 623.333 447.667 624 385 624L293 624 293 382 375 382C430.333 382.667 461 383.667 467 385 531 398.333 563 441 563 513ZM590 192C590 268.667 561.667 314.333 505 329 504.333 329.667 503.667 330 503 330L398 331 293 331 293 62 391 62 400 62 444 62C478.667 62 506.667 66.3333 528 75 549.333 83.6667 566.667 102.333 580 131 586.667 147 590 167.333 590 192Z" id="E1-MJMAINB-42"/><path d="M133 736C136.333 745.333 143 750 153 750 160.333 750 166 746.333 170 739 171.333 736.333 172 573.333 172 250 172-73.3333 171.333-236.333 170-239 166-246.333 160-250 152-250 146.667-250 142-248 138-244L137-243C134.333-241.667 133-220.333 133-179 133-137.667 132.667 5.33333 132 250 132 570.667 132.333 732.667 133 736ZM329 739C332.333 746.333 338 750 346 750 350.667 750 355.667 748 361 744L362 743C364.667 741.667 366 720.333 366 679 366 637.667 366.333 494.667 367 250 367.667 5.33333 367.667-137.333 367-178 366.333-218.667 364.667-240.333 362-243L361-244C357-248 352.333-250 347-250 339-250 333-246.333 329-239 327.667-236.333 327-73.3333 327 250 327 573.333 327.667 736.333 329 739Z" id="E1-MJMAIN-2225"/><path d="M61 748C63 749.333 205.667 750 489 750L913 750 954 640C961.333 619.333 968.667 599 976 579 983.333 559 989 543.667 993 533 997 522.333 999 516.667 999 516L979 516 959 517C943.667 558.333 919.333 593 886 621 852.667 649 816.333 669.333 777 682 741.667 694 701 701.667 655 705 609 708.333 536 710 436 710L319 710C228.333 710 183 709.667 183 709 185 707 240 632 348 484 456 336 510.333 261 511 259 515 253 515.667 248 513 244L490 216C474 197.333 450.667 170 420 134 389.333 98 359.333 62.3333 330 27L149-187C149-187.667 220-188 362-188 379.333-188 404-188 436-188 468-188 491.333-188.333 506-189 621.333-189 712-180 778-162 844-144 896.667-104.333 936-43 942.667-32.3333 950.333-16 959 6L999 6 913-249 489-250C206.333-250 64-249.333 62-248 58-246.667 56-243.667 56-239 56-235.667 76.6667-209.667 118-161 163.333-107.667 205.667-57.6667 245-11L428 206C428 206.667 366 292 242 462L57 717 56 728C56 738.667 57.6667 745.333 61 748Z" id="E1-MJSZ1-2211"/><path d="M184 600C184 616 190.333 630 203 642 215.667 654 230.333 660.333 247 661 259 661 269 657 277 649 285 641 289.333 631 290 619 290 603.667 283.333 589.667 270 577 256.667 564.333 242 557.667 226 557 216 557 206.667 560.333 198 567 189.333 573.667 184.667 584.667 184 600ZM21 287C21 292.333 24 302.667 30 318 36 333.333 44 350.333 54 369 64 387.667 78.6667 404.667 98 420 117.333 435.333 137.333 442.667 158 442 184 442 205.667 434.333 223 419 240.333 403.667 249.333 383 250 357 250 345.667 245.333 327 236 301 226.667 275 213.333 240 196 196 178.667 152 164.667 114.333 154 83 150.667 68.3333 149 57.6667 149 51 149 34.3333 154.667 26 166 26 172 26 178.333 27 185 29 191.667 31 199.333 35.6667 208 43 216.667 50.3333 225.667 62 235 78 244.333 94 252.667 113.667 260 137 262 145 263.667 149.667 265 151 266.333 152.333 272 153 282 153 295.333 153 302 149.667 302 143 302 137.667 299 127.333 293 112 287 96.6667 278.667 79.6667 268 61 257.333 42.3333 242.333 25.6667 223 11 203.667-3.66667 183-11 161-11 139.667-11 120-4 102 10 84 24 74.6667 45.3333 74 74 74 85.3333 75.6667 96 79 106 82.3333 116 96.6667 154 122 220 147.333 287.333 162 327.667 166 341 170 354.333 172.333 367.333 173 380 173 396 167.333 404 156 404L154 404C134 404 115.667 393 99 371 82.3333 349 69.6667 321 61 287 60.3333 286.333 59.6667 285.333 59 284 58.3333 282.667 58 281.667 58 281 58 280.333 57.3333 279.667 56 279 54.6667 278.333 53.6667 278 53 278 52.3333 278 51 278 49 278 47 278 44.3333 278 41 278L27 278C23 282 21 285 21 287Z" id="E1-MJMATHI-69"/><path d="M213 578 200 573C190.667 569.667 177.333 566.333 160 563 142.667 559.667 123.333 557.333 102 556L83 556 83 602 102 602C133.333 603.333 162.333 608.333 189 617 215.667 625.667 234.333 633.667 245 641 255.667 648.333 265 655.667 273 663 274.333 665 278.333 666 285 666 291 666 296.667 664 302 660L302 361 303 61C307.667 56.3333 311.667 53.3333 315 52 318.333 50.6667 326.333 49.3333 339 48 351.667 46.6667 372.333 46 401 46L427 46 427 0 416 0C402 2 349 3 257 3 166.333 3 114 2 100 0L88 0 88 46 114 46C128.667 46 141.333 46 152 46 162.667 46 171 46.3333 177 47 183 47.6667 188.333 48.6667 193 50 197.667 51.3333 200.333 52 201 52 201.667 52 203.667 53.6667 207 57 210.333 60.3333 212.333 61.6667 213 61L213 578Z" id="E1-MJMAIN-31"/><path d="M21 287C21.6667 291 22.6667 296.333 24 303 25.3333 309.667 29.3333 322.333 36 341 42.6667 359.667 49.3333 375.333 56 388 62.6667 400.667 73.6667 413 89 425 104.333 437 119.667 442.667 135 442 159 442 179 436 195 424 211 412 221 400.667 225 390 229 379.333 231 372.333 231 369 231 367.667 231.333 367 232 367L243 378C283.667 420.667 330 442 382 442 418 442 447 433 469 415 491 397 502.333 370.667 503 336 503.667 301.333 491 249 465 179 439 109 426.333 66.6667 427 52 427 34.6667 432.667 26 444 26 448 26 451 26.3333 453 27 472.333 30.3333 489.667 43 505 65 520.333 87 532 113.667 540 145 541.333 150.333 548 153 560 153 573.333 153 580 150.333 580 145 580 144.333 578.667 139.333 576 130 570.667 110.667 563.333 91.6667 554 73 544.667 54.3333 529.333 35.6667 508 17 486.667-1.66667 463.667-10.6667 439-10 407.667-10 385-1 371 17 357 35 350 53.6667 350 73 350 85.6667 362 125.667 386 193 410 260.333 422.333 311 423 345 423 384.333 408.333 404 379 404L374 404C316.667 404 268.333 370.333 229 303L222 291 189 157C167 69.6667 154.333 22.6667 151 16 142.333-2 128-11 108-11 99.3333-11 92.3333-9 87-5 81.6667-1 78 3 76 7 74 11 73.3333 14.3333 74 17 74 25.6667 86.6667 80 112 180 137.333 280 150.667 334.333 152 343 152.667 346.333 153 354 153 366 153 392 145 405 129 405 103.667 405 82.6667 371.667 66 305 62 291.667 60 284.667 60 284 58.6667 280 52.3333 278 41 278L27 278C23 282 21 285 21 287Z" id="E1-MJMATHI-6E"/><path d="M208 74C208 58 223.333 48.6667 254 46 266 46 272 42.3333 272 35 272 34.3333 271.333 30 270 22 268 12.6667 266 6.66667 264 4 262 1.33333 257.667 0 251 0 249.667 0 245.667 0 239 0 232.333 0 221 0.333333 205 1 189 1.66667 167.667 2 141 2 93.6667 2 63.3333 1.33333 50 0L42 0C37.3333 4.66667 35 8.33333 35 11 36.3333 29 40.6667 40.6667 48 46L62 46C108.667 48 142.667 64.6667 164 96 168 100 228.333 201.667 345 401 461.667 600.333 521 701.333 523 704 527.667 712 535.667 716 547 716L555 716 572 716C576 710 578 706.667 578 706L606 383C624.667 167.667 634.667 59 636 57 639.333 49.6667 661 46 701 46 717.667 46 726 42.6667 726 36 726 34.6667 725 30 723 22 721 12 719.333 6 718 4 716.667 2 712 0.666667 704 0 702 0 697.333 0 690 0 682.667 0 669.667 0.333333 651 1 632.333 1.66667 608 2 578 2 515.333 2 474.333 1.33333 455 0L443 0C439 4 437 7 437 9 437 11 437.667 17 439 27 441.667 35.6667 443.667 41 445 43L449 46 469 46C505 48 526.333 53.6667 533 63L521 213 283 213 249 155C221.667 109 208 82 208 74ZM516 260C516 267.333 512 319.333 504 416 496 512.667 491.333 561.333 490 562L463 519C452.333 501 431.333 465.333 400 412L310 260 413 259C481.667 259 516 259.333 516 260Z" id="E1-MJMATHI-41"/><path d="M231 637C213 637 202.333 637.333 199 638 195.667 638.667 194 642.333 194 649 194 667 197.667 678 205 682 205.667 682.667 249 683 335 683 507.667 683 598.667 682.333 608 681 650 674.333 685 659.333 713 636 741 612.667 755.333 582 756 544 756 501.333 736.667 463 698 429 659.333 395 615 372 565 360L555 357C597.667 351 632.667 335.667 660 311 687.333 286.333 701.333 255.667 702 219 702 170.333 678 123.333 630 78 582 32.6667 523 7 453 1 448.333 0.333333 378 0 242 0 108.667 0 41 0.666667 39 2 36.3333 4 35 6.66667 35 10 35 14.6667 35.6667 19.3333 37 24 40.3333 36.6667 43.6667 43.6667 47 45 49.6667 45.6667 54.6667 46 62 46L68 46C86 46 106 47 128 49 137.333 51 143.667 55 147 61 149 63.6667 173 156.333 219 339 265 521.667 288 618 288 628 288 632.667 269 635.667 231 637ZM649 544C649 564 644 582.667 634 600 624 617.333 607.667 628.667 585 634 580.333 635.333 549.667 636.333 493 637 479.667 637 465.667 637 451 637 436.333 637 424.667 636.667 416 636L403 636C393 635.333 386.667 632 384 626 382.667 623.333 372 583.333 352 506 352 504 351.667 502 351 500L320 374 401 374C455 374 486 374.667 494 376 534 382.667 569.667 402 601 434 632.333 466 648.333 502.667 649 544ZM595 229C595 258.333 587.333 282.667 572 302 556.667 321.333 536.667 332.667 512 336 508 336.667 480.333 337 429 337 350.333 337 310.667 336.667 310 336 310 334.667 304.333 310.333 293 263 281.667 215.667 270 168.667 258 122L240 52C240 49.3333 244 48 252 48 260 48 287 47.3333 333 46 392.333 46 424.333 46.3333 429 47 470.333 51.6667 508.333 71 543 105 577.667 139 595 180.333 595 229Z" id="E1-MJMATHI-42"/><path d="M109 429C91 429 76.6667 435 66 447 55.3333 459 50 473.667 50 491 50 538.333 67.6667 579.333 103 614 138.333 648.667 182.333 666 235 666 295.667 666 346.333 647.333 387 610 427.667 572.667 448.333 524.333 449 465 449 436.333 442.333 409 429 383 415.667 357 399.667 334.333 381 315 362.333 295.667 335.667 271 301 241 277 220.333 243.667 189.667 201 149L142 93 218 92C322.667 92 378.333 93.6667 385 97 389.667 98.3333 397.667 128 409 186L409 189 449 189 449 186C448.333 184 444 153.667 436 95 428 36.3333 423 5.66667 421 3L421 0 50 0 50 19 50 31C50 35.6667 52 40.6667 56 46 60 51.3333 70 63 86 81 105.333 102.333 122 121 136 137 142 143.667 153.333 156 170 174 186.667 192 198 204.333 204 211 210 217.667 219.667 228.667 233 244 246.333 259.333 255.667 270.667 261 278 266.333 285.333 274 295.333 284 308 294 320.667 301 331.333 305 340 309 348.667 314 358.333 320 369 326 379.667 330.333 390.333 333 401 335.667 411.667 338 421.667 340 431 342 440.333 343 451.333 343 464 343 506 331.667 542.333 309 573 286.333 603.667 254 619 212 619 190 619 170.667 613.333 154 602 137.333 590.667 125.667 579.667 119 569 112.333 558.333 109 552 109 550 109 549.333 110.667 549 114 549 126 549 138.333 544.333 151 535 163.667 525.667 170 510.333 170 489 170 472.333 164.667 458.333 154 447 143.333 435.667 128.333 429.667 109 429Z" id="E1-MJMAIN-32"/><path d="M983 1739C986.333 1746.33 992.333 1750 1001 1750 1005.67 1750 1009.67 1748.33 1013 1745 1016.33 1741.67 1018.67 1737.67 1020 1733 1020 1728.33 927.333 1232 742 244 556.667-744 462.667-1239 460-1241 458.667-1247 451.667-1250 439-1250L436-1250C428-1250 424-1249.33 424-1248L410-1166C400-1110.67 385.667-1028.67 367-920 348.333-811.333 330-705 312-601L201 44 137-83 111-57 187 96 264 247C264.667 246.333 299.667 45 369-357 436.333-757.667 471-959.667 473-963L727 384C895 1280.67 980.333 1732.33 983 1739Z" id="E1-MJSZ4-221A"/><path d="M78 35C78 35 78 43.3333 78 60 78 76.6667 83.3333 91 94 103 104.667 115 119 121 137 121 155.667 121 172.333 112.667 187 96 201.667 79.3333 209.333 50 210 8 210-15.3333 207-38 201-60 195-82 188-101 180-117 172-133 163.333-146.667 154-158 144.667-169.333 136.667-178.333 130-185 123.333-191.667 119-194.667 117-194 114.333-194 110-191 104-185 98-179 95-174.667 95-172 95-169.333 98.6667-164 106-156 113.333-148 121.667-138 131-126 140.333-114 149-97.3333 157-76 165-54.6667 170.333-30.3333 173-3L173 9 172 8C170.667 7.33333 169 6.66667 167 6 165 5.33333 163 4.33333 161 3 159 1.66667 156 1 152 1 148 1 144 0.666667 140 0 122 0 107.333 5.66667 96 17Z" id="E1-MJMAIN-2C"/></defs><g stroke="currentColor" stroke-width="0" fill="currentColor" transform="scale(1 -1)"><use width="100%" height="100%" xlink:href="#E1-MJMAIN-73"></use><use x="394" width="100%" height="100%" xlink:href="#E1-MJMAIN-69"></use><use x="673" width="100%" height="100%" xlink:href="#E1-MJMAIN-6D"></use><use x="1506" width="100%" height="100%" xlink:href="#E1-MJMAIN-69"></use><use x="1785" width="100%" height="100%" xlink:href="#E1-MJMAIN-6C"></use><use x="2063" width="100%" height="100%" xlink:href="#E1-MJMAIN-61"></use><use x="2564" width="100%" height="100%" xlink:href="#E1-MJMAIN-72"></use><use x="2956" width="100%" height="100%" xlink:href="#E1-MJMAIN-69"></use><use x="3235" width="100%" height="100%" xlink:href="#E1-MJMAIN-74"></use><use x="3624" width="100%" height="100%" xlink:href="#E1-MJMAIN-79"></use><use x="4430" width="100%" height="100%" xlink:href="#E1-MJMAIN-3D"></use><g transform="translate(5487 0)"><use width="100%" height="100%" xlink:href="#E1-MJMAIN-63"></use><use x="444" width="100%" height="100%" xlink:href="#E1-MJMAIN-6F"></use><use x="945" width="100%" height="100%" xlink:href="#E1-MJMAIN-73"></use></g><use x="6826" width="100%" height="100%" xlink:href="#E1-MJMAIN-28"></use><use x="7216" width="100%" height="100%" xlink:href="#E1-MJMATHI-3B8"></use><use x="7685" width="100%" height="100%" xlink:href="#E1-MJMAIN-29"></use><use x="8352" width="100%" height="100%" xlink:href="#E1-MJMAIN-3D"></use><g transform="translate(9409 0)"><g transform="translate(120 0)"><rect x="0" y="220" width="3810" height="60" stroke="none"/><g transform="translate(699 676)"><use width="100%" height="100%" xlink:href="#E1-MJMAINB-41"></use><use x="1091" width="100%" height="100%" xlink:href="#E1-MJMAIN-22C5"></use><use x="1592" width="100%" height="100%" xlink:href="#E1-MJMAINB-42"></use></g><g transform="translate(60 -771)"><use width="100%" height="100%" xlink:href="#E1-MJMAIN-2225"></use><use x="500" width="100%" height="100%" xlink:href="#E1-MJMAINB-41"></use><use x="1370" width="100%" height="100%" xlink:href="#E1-MJMAIN-2225"></use><use x="1870" width="100%" height="100%" xlink:href="#E1-MJMAIN-2225"></use><use x="2371" width="100%" height="100%" xlink:href="#E1-MJMAINB-42"></use><use x="3189" width="100%" height="100%" xlink:href="#E1-MJMAIN-2225"></use></g></g></g><use x="13736" width="100%" height="100%" xlink:href="#E1-MJMAIN-3D"></use><g transform="translate(14793 0)"><g transform="translate(120 0)"><rect x="0" y="220" width="7169" height="60" stroke="none"/><g transform="translate(1827 1517)"><use x="46" width="100%" height="100%" xlink:href="#E1-MJSZ1-2211"></use><g transform="matrix(1 0 0 1 0 -890)"><use width="100%" height="100%" xlink:href="#E1-MJMATHI-69" transform="scale(0.707 0.707)"></use><use x="345" width="100%" height="100%" xlink:href="#E1-MJMAIN-3D" transform="scale(0.707 0.707)"></use><use x="1124" width="100%" height="100%" xlink:href="#E1-MJMAIN-31" transform="scale(0.707 0.707)"></use></g><use x="511" y="1344" width="100%" height="100%" xlink:href="#E1-MJMATHI-6E" transform="scale(0.707 0.707)"></use><g transform="translate(1315 0)"><use width="100%" height="100%" xlink:href="#E1-MJMATHI-41"></use><use x="1061" y="-213" width="100%" height="100%" xlink:href="#E1-MJMATHI-69" transform="scale(0.707 0.707)"></use><g transform="translate(1094 0)"><use width="100%" height="100%" xlink:href="#E1-MJMATHI-42"></use><use x="1074" y="-213" width="100%" height="100%" xlink:href="#E1-MJMATHI-69" transform="scale(0.707 0.707)"></use></g></g></g><g transform="translate(60 -1771)"><use y="-61" width="100%" height="100%" xlink:href="#E1-MJSZ4-221A"></use><rect x="1000" y="1630" width="2519" height="60" stroke="none"/><g transform="translate(1000 0)"><use x="46" width="100%" height="100%" xlink:href="#E1-MJSZ1-2211"></use><g transform="matrix(1 0 0 1 0 -890)"><use width="100%" height="100%" xlink:href="#E1-MJMATHI-69" transform="scale(0.707 0.707)"></use><use x="345" width="100%" height="100%" xlink:href="#E1-MJMAIN-3D" transform="scale(0.707 0.707)"></use><use x="1124" width="100%" height="100%" xlink:href="#E1-MJMAIN-31" transform="scale(0.707 0.707)"></use></g><use x="511" y="1344" width="100%" height="100%" xlink:href="#E1-MJMATHI-6E" transform="scale(0.707 0.707)"></use><g transform="translate(1315 0)"><use width="100%" height="100%" xlink:href="#E1-MJMATHI-41"></use><use x="1061" y="488" width="100%" height="100%" xlink:href="#E1-MJMAIN-32" transform="scale(0.707 0.707)"></use><use x="1061" y="-430" width="100%" height="100%" xlink:href="#E1-MJMATHI-69" transform="scale(0.707 0.707)"></use></g></g><g transform="translate(3520 0)"><use y="-61" width="100%" height="100%" xlink:href="#E1-MJSZ4-221A"></use><rect x="1000" y="1630" width="2528" height="60" stroke="none"/><g transform="translate(1000 0)"><use x="46" width="100%" height="100%" xlink:href="#E1-MJSZ1-2211"></use><g transform="matrix(1 0 0 1 0 -890)"><use width="100%" height="100%" xlink:href="#E1-MJMATHI-69" transform="scale(0.707 0.707)"></use><use x="345" width="100%" height="100%" xlink:href="#E1-MJMAIN-3D" transform="scale(0.707 0.707)"></use><use x="1124" width="100%" height="100%" xlink:href="#E1-MJMAIN-31" transform="scale(0.707 0.707)"></use></g><use x="511" y="1344" width="100%" height="100%" xlink:href="#E1-MJMATHI-6E" transform="scale(0.707 0.707)"></use><g transform="translate(1315 0)"><use width="100%" height="100%" xlink:href="#E1-MJMATHI-42"></use><use x="1074" y="488" width="100%" height="100%" xlink:href="#E1-MJMAIN-32" transform="scale(0.707 0.707)"></use><use x="1074" y="-430" width="100%" height="100%" xlink:href="#E1-MJMATHI-69" transform="scale(0.707 0.707)"></use></g></g></g></g></g></g><use x="22202" width="100%" height="100%" xlink:href="#E1-MJMAIN-2C"></use></g></svg>